<?xml version="1.0" encoding="UTF-8" standalone="no"?>
<!DOCTYPE svg PUBLIC "-//W3C//DTD SVG 1.0//EN" "http://www.w3.org/TR/2001/PR-SVG-20010719/DTD/svg10.dtd">
<svg width="39cm" height="43cm" viewBox="240 49 765 841" xmlns="http://www.w3.org/2000/svg" xmlns:xlink="http://www.w3.org/1999/xlink">
  <g>
    <polygon style="fill: #ffffff" points="526.64,51 789,51 775.169,89 512.809,89 "/>
    <polygon style="fill: none; fill-opacity:0; stroke-width: 2; stroke: #000000" points="526.64,51 789,51 775.169,89 512.809,89 "/>
    <text font-size="12.7998" style="fill: #000000;text-anchor:middle;font-family:sans-serif;font-style:normal;font-weight:normal" x="650.904" y="73.9">
      <tspan x="650.904" y="73.9">Web Request</tspan>
    </text>
  </g>
  <g>
    <rect style="fill: #ffffff" x="383" y="141" width="108" height="54"/>
    <rect style="fill: none; fill-opacity:0; stroke-width: 2; stroke: #000000" x="383" y="141" width="108" height="54"/>
    <text font-size="12.7998" style="fill: #000000;text-anchor:middle;font-family:sans-serif;font-style:normal;font-weight:normal" x="437" y="163.9">
      <tspan x="437" y="163.9">Websocket</tspan>
      <tspan x="437" y="179.9">/ws</tspan>
    </text>
  </g>
  <g>
    <rect style="fill: #ffffff" x="564" y="142.5" width="161" height="54"/>
    <rect style="fill: none; fill-opacity:0; stroke-width: 2; stroke: #000000" x="564" y="142.5" width="161" height="54"/>
    <text font-size="12.7998" style="fill: #000000;text-anchor:middle;font-family:sans-serif;font-style:normal;font-weight:normal" x="644.5" y="165.4">
      <tspan x="644.5" y="165.4">HTTP(S)</tspan>
      <tspan x="644.5" y="181.4">/</tspan>
    </text>
  </g>
  <g>
    <rect style="fill: #ffffff" x="787" y="142.5" width="194" height="54"/>
    <rect style="fill: none; fill-opacity:0; stroke-width: 2; stroke: #000000" x="787" y="142.5" width="194" height="54"/>
    <text font-size="12.7998" style="fill: #000000;text-anchor:middle;font-family:sans-serif;font-style:normal;font-weight:normal" x="884" y="165.4">
      <tspan x="884" y="165.4">HTTP(S)</tspan>
      <tspan x="884" y="181.4">/:action</tspan>
    </text>
  </g>
  <g>
    <rect style="fill: #ffffff" x="530" y="378" width="229" height="39"/>
    <rect style="fill: none; fill-opacity:0; stroke-width: 2; stroke: #000000" x="530" y="378" width="229" height="39"/>
    <text font-size="12.7998" style="fill: #000000;text-anchor:middle;font-family:sans-serif;font-style:normal;font-weight:normal" x="644.5" y="401.4">
      <tspan x="644.5" y="401.4">ActionHandler</tspan>
    </text>
  </g>
  <g>
    <polyline style="fill: none; fill-opacity:0; stroke-width: 2; stroke: #000000" points="437,131.264 437,115 643.989,115 643.989,89 "/>
    <polygon style="fill: #000000" points="437,138.764 432,128.764 437,131.264 442,128.764 "/>
    <polygon style="fill: none; fill-opacity:0; stroke-width: 2; stroke: #000000" points="437,138.764 432,128.764 437,131.264 442,128.764 "/>
  </g>
  <g>
    <polyline style="fill: none; fill-opacity:0; stroke-width: 2; stroke: #000000" points="884,131.757 884,115.247 643.989,115.247 643.989,89 "/>
    <polygon style="fill: #000000" points="884,139.257 879,129.257 884,131.757 889,129.257 "/>
    <polygon style="fill: none; fill-opacity:0; stroke-width: 2; stroke: #000000" points="884,139.257 879,129.257 884,131.757 889,129.257 "/>
  </g>
  <g>
    <polyline style="fill: none; fill-opacity:0; stroke-width: 2; stroke: #000000" points="644.5,132.764 644.5,115.75 643.989,115.75 643.989,89 "/>
    <polygon style="fill: #000000" points="644.5,140.264 639.5,130.264 644.5,132.764 649.5,130.264 "/>
    <polygon style="fill: none; fill-opacity:0; stroke-width: 2; stroke: #000000" points="644.5,140.264 639.5,130.264 644.5,132.764 649.5,130.264 "/>
  </g>
  <g>
    <polyline style="fill: none; fill-opacity:0; stroke-width: 2; stroke: #000000" points="437,195 437,286.5 644.5,286.5 644.5,368.264 "/>
    <polygon style="fill: #000000" points="644.5,375.764 639.5,365.764 644.5,368.264 649.5,365.764 "/>
    <polygon style="fill: none; fill-opacity:0; stroke-width: 2; stroke: #000000" points="644.5,375.764 639.5,365.764 644.5,368.264 649.5,365.764 "/>
  </g>
  <g>
    <polyline style="fill: none; fill-opacity:0; stroke-width: 2; stroke: #000000" points="884,196.5 884,287.25 644.5,287.25 644.5,368.264 "/>
    <polygon style="fill: #000000" points="644.5,375.764 639.5,365.764 644.5,368.264 649.5,365.764 "/>
    <polygon style="fill: none; fill-opacity:0; stroke-width: 2; stroke: #000000" points="644.5,375.764 639.5,365.764 644.5,368.264 649.5,365.764 "/>
  </g>
  <g>
    <rect style="fill: #ffffff" x="311.225" y="473" width="99.55" height="38"/>
    <rect style="fill: none; fill-opacity:0; stroke-width: 2; stroke: #000000" x="311.225" y="473" width="99.55" height="38"/>
    <text font-size="12.7998" style="fill: #000000;text-anchor:middle;font-family:sans-serif;font-style:normal;font-weight:normal" x="361" y="495.9">
      <tspan x="361" y="495.9">AHREFRESH</tspan>
    </text>
  </g>
  <g>
    <rect style="fill: #ffffff" x="429.725" y="472" width="106.55" height="38"/>
    <rect style="fill: none; fill-opacity:0; stroke-width: 2; stroke: #000000" x="429.725" y="472" width="106.55" height="38"/>
    <text font-size="12.7998" style="fill: #000000;text-anchor:middle;font-family:sans-serif;font-style:normal;font-weight:normal" x="483" y="494.9">
      <tspan x="483" y="494.9">AHSAVEDATA</tspan>
    </text>
  </g>
  <g>
    <rect style="fill: #ffffff" x="555.5" y="473" width="123" height="38"/>
    <rect style="fill: none; fill-opacity:0; stroke-width: 2; stroke: #000000" x="555.5" y="473" width="123" height="38"/>
    <text font-size="12.7998" style="fill: #000000;text-anchor:middle;font-family:sans-serif;font-style:normal;font-weight:normal" x="617" y="495.9">
      <tspan x="617" y="495.9">AHOPENDOORS</tspan>
    </text>
  </g>
  <g>
    <rect style="fill: #ffffff" x="698.425" y="473" width="113.15" height="38"/>
    <rect style="fill: none; fill-opacity:0; stroke-width: 2; stroke: #000000" x="698.425" y="473" width="113.15" height="38"/>
    <text font-size="12.7998" style="fill: #000000;text-anchor:middle;font-family:sans-serif;font-style:normal;font-weight:normal" x="755" y="495.9">
      <tspan x="755" y="495.9">AHUSERINPUT</tspan>
    </text>
  </g>
  <g>
    <rect style="fill: #ffffff" x="827.775" y="473" width="108.45" height="38"/>
    <rect style="fill: none; fill-opacity:0; stroke-width: 2; stroke: #000000" x="827.775" y="473" width="108.45" height="38"/>
    <text font-size="12.7998" style="fill: #000000;text-anchor:middle;font-family:sans-serif;font-style:normal;font-weight:normal" x="882" y="495.9">
      <tspan x="882" y="495.9">AHKEEPALIVE</tspan>
    </text>
  </g>
  <g>
    <rect style="fill: #ffffff" x="953" y="472" width="48" height="38"/>
    <rect style="fill: none; fill-opacity:0; stroke-width: 2; stroke: #000000" x="953" y="472" width="48" height="38"/>
    <text font-size="12.7998" style="fill: #000000;text-anchor:middle;font-family:sans-serif;font-style:normal;font-weight:normal" x="977" y="494.9">
      <tspan x="977" y="494.9">else</tspan>
    </text>
  </g>
  <g>
    <polyline style="fill: none; fill-opacity:0; stroke-width: 2; stroke: #000000" points="644.5,417 644.5,445 361,445 361,463.264 "/>
    <polygon style="fill: #000000" points="361,470.764 356,460.764 361,463.264 366,460.764 "/>
    <polygon style="fill: none; fill-opacity:0; stroke-width: 2; stroke: #000000" points="361,470.764 356,460.764 361,463.264 366,460.764 "/>
  </g>
  <g>
    <polyline style="fill: none; fill-opacity:0; stroke-width: 2; stroke: #000000" points="644.5,417 644.5,444.5 483,444.5 483,462.264 "/>
    <polygon style="fill: #000000" points="483,469.764 478,459.764 483,462.264 488,459.764 "/>
    <polygon style="fill: none; fill-opacity:0; stroke-width: 2; stroke: #000000" points="483,469.764 478,459.764 483,462.264 488,459.764 "/>
  </g>
  <g>
    <polyline style="fill: none; fill-opacity:0; stroke-width: 2; stroke: #000000" points="644.5,417 644.5,445 617,445 617,463.264 "/>
    <polygon style="fill: #000000" points="617,470.764 612,460.764 617,463.264 622,460.764 "/>
    <polygon style="fill: none; fill-opacity:0; stroke-width: 2; stroke: #000000" points="617,470.764 612,460.764 617,463.264 622,460.764 "/>
  </g>
  <g>
    <polyline style="fill: none; fill-opacity:0; stroke-width: 2; stroke: #000000" points="644.5,417 644.5,445 755,445 755,463.264 "/>
    <polygon style="fill: #000000" points="755,470.764 750,460.764 755,463.264 760,460.764 "/>
    <polygon style="fill: none; fill-opacity:0; stroke-width: 2; stroke: #000000" points="755,470.764 750,460.764 755,463.264 760,460.764 "/>
  </g>
  <g>
    <polyline style="fill: none; fill-opacity:0; stroke-width: 2; stroke: #000000" points="644.5,417 644.5,445 882,445 882,463.264 "/>
    <polygon style="fill: #000000" points="882,470.764 877,460.764 882,463.264 887,460.764 "/>
    <polygon style="fill: none; fill-opacity:0; stroke-width: 2; stroke: #000000" points="882,470.764 877,460.764 882,463.264 887,460.764 "/>
  </g>
  <g>
    <polyline style="fill: none; fill-opacity:0; stroke-width: 2; stroke: #000000" points="644.5,417 644.5,444.5 977,444.5 977,462.264 "/>
    <polygon style="fill: #000000" points="977,469.764 972,459.764 977,462.264 982,459.764 "/>
    <polygon style="fill: none; fill-opacity:0; stroke-width: 2; stroke: #000000" points="977,469.764 972,459.764 977,462.264 982,459.764 "/>
  </g>
  <g>
    <rect style="fill: #ffffff" x="560" y="221" width="167" height="47"/>
    <rect style="fill: none; fill-opacity:0; stroke-width: 2; stroke: #000000" x="560" y="221" width="167" height="47"/>
    <text font-size="12.7998" style="fill: #000000;text-anchor:middle;font-family:sans-serif;font-style:normal;font-weight:normal" x="643.5" y="248.4">
      <tspan x="643.5" y="248.4">RETURN index.html</tspan>
    </text>
  </g>
  <g>
    <line style="fill: none; fill-opacity:0; stroke-width: 2; stroke: #000000" x1="644.5" y1="196.5" x2="643.897" y2="211.272"/>
    <polygon style="fill: #000000" points="643.591,218.766 639.003,208.57 643.897,211.272 648.995,208.978 "/>
    <polygon style="fill: none; fill-opacity:0; stroke-width: 2; stroke: #000000" points="643.591,218.766 639.003,208.57 643.897,211.272 648.995,208.978 "/>
  </g>
  <g>
    <rect style="fill: #ffffff" x="523.925" y="675" width="170.15" height="38"/>
    <rect style="fill: none; fill-opacity:0; stroke-width: 2; stroke: #000000" x="523.925" y="675" width="170.15" height="38"/>
    <text font-size="12.7998" style="fill: #000000;text-anchor:middle;font-family:sans-serif;font-style:normal;font-weight:normal" x="609" y="697.9">
      <tspan x="609" y="697.9">Save Data to Database</tspan>
    </text>
  </g>
  <g>
    <rect style="fill: #ffffff" x="686.125" y="583" width="97.875" height="38"/>
    <rect style="fill: none; fill-opacity:0; stroke-width: 2; stroke: #000000" x="686.125" y="583" width="97.875" height="38"/>
    <text font-size="12.7998" style="fill: #000000;text-anchor:middle;font-family:sans-serif;font-style:normal;font-weight:normal" x="735.063" y="605.9">
      <tspan x="735.063" y="605.9">Open Doors</tspan>
    </text>
  </g>
  <g>
    <rect style="fill: #ffffff" x="833.875" y="582" width="96.25" height="38"/>
    <rect style="fill: none; fill-opacity:0; stroke-width: 2; stroke: #000000" x="833.875" y="582" width="96.25" height="38"/>
    <text font-size="12.7998" style="fill: #000000;text-anchor:middle;font-family:sans-serif;font-style:normal;font-weight:normal" x="882" y="604.9">
      <tspan x="882" y="604.9">Take notice</tspan>
    </text>
  </g>
  <g>
    <rect style="fill: #ffffff" x="950.4" y="582" width="53.2" height="38"/>
    <rect style="fill: none; fill-opacity:0; stroke-width: 2; stroke: #000000" x="950.4" y="582" width="53.2" height="38"/>
    <text font-size="12.7998" style="fill: #000000;text-anchor:middle;font-family:sans-serif;font-style:normal;font-weight:normal" x="977" y="604.9">
      <tspan x="977" y="604.9">Error</tspan>
    </text>
  </g>
  <g>
    <rect style="fill: #ffffff" x="388.3" y="761" width="203.4" height="38"/>
    <rect style="fill: none; fill-opacity:0; stroke-width: 2; stroke: #000000" x="388.3" y="761" width="203.4" height="38"/>
    <text font-size="12.7998" style="fill: #000000;text-anchor:middle;font-family:sans-serif;font-style:normal;font-weight:normal" x="490" y="783.9">
      <tspan x="490" y="783.9">Get Data from the Database</tspan>
    </text>
  </g>
  <g>
    <polyline style="fill: none; fill-opacity:0; stroke-width: 2; stroke: #000000" points="483,510 483,592.5 609,592.5 609,665.264 "/>
    <polygon style="fill: #000000" points="609,672.764 604,662.764 609,665.264 614,662.764 "/>
    <polygon style="fill: none; fill-opacity:0; stroke-width: 2; stroke: #000000" points="609,672.764 604,662.764 609,665.264 614,662.764 "/>
  </g>
  <g>
    <polyline style="fill: none; fill-opacity:0; stroke-width: 2; stroke: #000000" points="617,511 617,550.1 290.438,550.1 290.438,579.464 "/>
    <polygon style="fill: #000000" points="290.438,586.964 285.438,576.964 290.438,579.464 295.438,576.964 "/>
    <polygon style="fill: none; fill-opacity:0; stroke-width: 2; stroke: #000000" points="290.438,586.964 285.438,576.964 290.438,579.464 295.438,576.964 "/>
  </g>
  <g>
    <polyline style="fill: none; fill-opacity:0; stroke-width: 2; stroke: #000000" points="755,511 755,547 735.063,547 735.063,573.264 "/>
    <polygon style="fill: #000000" points="735.063,580.764 730.063,570.764 735.063,573.264 740.063,570.764 "/>
    <polygon style="fill: none; fill-opacity:0; stroke-width: 2; stroke: #000000" points="735.063,580.764 730.063,570.764 735.063,573.264 740.063,570.764 "/>
  </g>
  <g>
    <polyline style="fill: none; fill-opacity:0; stroke-width: 2; stroke: #000000" points="735.063,621 735.063,648 609,648 609,665.264 "/>
    <polygon style="fill: #000000" points="609,672.764 604,662.764 609,665.264 614,662.764 "/>
    <polygon style="fill: none; fill-opacity:0; stroke-width: 2; stroke: #000000" points="609,672.764 604,662.764 609,665.264 614,662.764 "/>
  </g>
  <g>
    <line style="fill: none; fill-opacity:0; stroke-width: 2; stroke: #000000" x1="882" y1="511" x2="882" y2="572.264"/>
    <polygon style="fill: #000000" points="882,579.764 877,569.764 882,572.264 887,569.764 "/>
    <polygon style="fill: none; fill-opacity:0; stroke-width: 2; stroke: #000000" points="882,579.764 877,569.764 882,572.264 887,569.764 "/>
  </g>
  <g>
    <line style="fill: none; fill-opacity:0; stroke-width: 2; stroke: #000000" x1="977" y1="510" x2="977" y2="572.264"/>
    <polygon style="fill: #000000" points="977,579.764 972,569.764 977,572.264 982,569.764 "/>
    <polygon style="fill: none; fill-opacity:0; stroke-width: 2; stroke: #000000" points="977,579.764 972,569.764 977,572.264 982,569.764 "/>
  </g>
  <g>
    <polyline style="fill: none; fill-opacity:0; stroke-width: 2; stroke: #000000" points="361,511 361,636 490,636 490,751.264 "/>
    <polygon style="fill: #000000" points="490,758.764 485,748.764 490,751.264 495,748.764 "/>
    <polygon style="fill: none; fill-opacity:0; stroke-width: 2; stroke: #000000" points="490,758.764 485,748.764 490,751.264 495,748.764 "/>
  </g>
  <g>
    <polyline style="fill: none; fill-opacity:0; stroke-width: 2; stroke: #000000" points="609,713 609,737 490,737 490,751.264 "/>
    <polygon style="fill: #000000" points="490,758.764 485,748.764 490,751.264 495,748.764 "/>
    <polygon style="fill: none; fill-opacity:0; stroke-width: 2; stroke: #000000" points="490,758.764 485,748.764 490,751.264 495,748.764 "/>
  </g>
  <g>
    <rect style="fill: #ffffff" x="241.5" y="589.2" width="97.875" height="38"/>
    <rect style="fill: none; fill-opacity:0; stroke-width: 2; stroke: #000000" x="241.5" y="589.2" width="97.875" height="38"/>
    <text font-size="12.7998" style="fill: #000000;text-anchor:middle;font-family:sans-serif;font-style:normal;font-weight:normal" x="290.438" y="612.1">
      <tspan x="290.438" y="612.1">Open Doors</tspan>
    </text>
  </g>
  <g>
    <polyline style="fill: none; fill-opacity:0; stroke-width: 2; stroke: #000000" points="290.438,627.2 290.438,694.1 490,694.1 490,751.264 "/>
    <polygon style="fill: #000000" points="490,758.764 485,748.764 490,751.264 495,748.764 "/>
    <polygon style="fill: none; fill-opacity:0; stroke-width: 2; stroke: #000000" points="490,758.764 485,748.764 490,751.264 495,748.764 "/>
  </g>
  <g>
    <rect style="fill: #ffffff" x="372.375" y="852" width="233.25" height="38"/>
    <rect style="fill: none; fill-opacity:0; stroke-width: 2; stroke: #000000" x="372.375" y="852" width="233.25" height="38"/>
    <text font-size="12.7998" style="fill: #000000;text-anchor:middle;font-family:sans-serif;font-style:normal;font-weight:normal" x="489" y="874.9">
      <tspan x="489" y="874.9">RETURN Data from the Database</tspan>
    </text>
  </g>
  <g>
    <line style="fill: none; fill-opacity:0; stroke-width: 2; stroke: #000000" x1="490" y1="799" x2="489.184" y2="842.266"/>
    <polygon style="fill: #000000" points="489.042,849.764 484.232,839.672 489.184,842.266 494.23,839.86 "/>
    <polygon style="fill: none; fill-opacity:0; stroke-width: 2; stroke: #000000" points="489.042,849.764 484.232,839.672 489.184,842.266 494.23,839.86 "/>
  </g>
</svg>
